<svg width="391" height="396" viewBox="0 0 391 396" fill="none" xmlns="http://www.w3.org/2000/svg">
<path d="M9.89996 1C27.9 25.1 7.79996 52.5 14.4 80.3C21.3 108.9 35.9 108.5 45.8 147.1C52.1 171.5 7.89996 241.8 5.89996 266.9C3.59996 297.1 24.8 312.5 16.3 342C11.2 359.6 6.1 377.1 1 394.7" stroke="url(#paint0_linear_2_236)" stroke-miterlimit="10"/>
<path d="M20.2 1C32.2 17 27.3 34.6002 24.7 52.7002C23.4 61.7002 22.7 70.8 24.9 80C31.6 108.5 46.2 108.6 55.2 146.7C57 154.3 53.9 166 49 179.3C38.5 207.5 20.4 242.7 16.8 262.1C16.5 263.7 16.3 265.2 16.2 266.6C14.6 291.3 28.3 306.3 28.7 327.1C28.8 331.7 28.2 336.6 26.7 341.9C21.7 359.5 16.5 377.1 11.4 394.7" stroke="url(#paint1_linear_2_236)" stroke-miterlimit="10"/>
<path d="M30.5 1C42.4 16.9 37.6 34.4 35.1 52.5C33.8 61.4 33.1 70.5002 35.2 79.7002C41.7 108 56.4 108.7 64.4 146.3C66 153.9 62.8 165.6 57.8 178.8C47 207.1 30 242.1 26.8 261.8C26.5 263.4 26.3 264.9 26.3 266.3C25.1 290.9 38.5 306.1 38.9 326.9C39 331.5 38.5 336.4 37 341.7C32.1 359.4 26.9 377 21.7 394.6" stroke="url(#paint2_linear_2_236)" stroke-miterlimit="10"/>
<path d="M40.8 1C52.7 16.9 48 34.3 45.5 52.3C44.2 61.2 43.6 70.2001 45.6 79.4001C52 107.5 66.6 108.8 73.8 145.9C75.3 153.6 71.8 165.2 66.7 178.3C55.6 206.8 39.7 241.5 36.9 261.5C36.7 263.1 36.5 264.6 36.4 266C35.5 290.4 48.6 305.8 49.1 326.8C49.2 331.4 48.7 336.3 47.2 341.6C42.4 359.3 37.1 376.9 32 394.7" stroke="url(#paint3_linear_2_236)" stroke-miterlimit="10"/>
<path d="M51.2 1C63 16.8 58.5 34.2001 55.9 52.1001C54.7 60.9001 54 70.0001 56 79.1001C62.2 107 76.8 108.9 83.1 145.5C84.4 153.3 80.8 164.8 75.6 177.8C64.2 206.4 49.4 240.9 47 261.2C46.8 262.8 46.6 264.3 46.6 265.7C46.1 290 58.9 305.6 59.4 326.6C59.5 331.3 59 336.2 57.6 341.5C52.9 359.3 47.6 376.9 42.4 394.7" stroke="url(#paint4_linear_2_236)" stroke-miterlimit="10"/>
<path d="M61.5 1C73.2 16.7 68.8 34.1001 66.3 51.9001C65.1 60.7001 64.5 69.7 66.4 78.8C72.4 106.5 86.9 109 92.4 145.1C93.6 153 89.7 164.4 84.4 177.3C72.7 206 59 240.3 57 260.9C56.8 262.5 56.7 264 56.7 265.4C56.5 289.6 69 305.4 69.6 326.4C69.7 331.1 69.2 336 67.8 341.3C63.2 359.2 57.8 376.8 52.6 394.6" stroke="url(#paint5_linear_2_236)" stroke-miterlimit="10"/>
<path d="M71.8 1C83.5 16.6 79.2 33.9002 76.7 51.7002C75.5 60.5002 74.9 69.4 76.8 78.5C82.7 106 97.1 109.2 101.7 144.7C102.7 152.6 98.6 164 93.3 176.8C81.3 205.6 68.7 239.7 67.1 260.6C67 262.2 66.9 263.7 66.9 265.1C67 289.2 79.3 305.2 79.9 326.2C80 330.9 79.5 335.9 78.2 341.2C73.7 359.1 68.2 376.7 63 394.7" stroke="url(#paint6_linear_2_236)" stroke-miterlimit="10"/>
<path d="M82.1 1C93.7 16.6 89.6 33.8 87.1 51.5C85.9 60.2 85.3 69.2002 87.2 78.2002C92.8 105.5 107.2 109.3 111 144.3C111.9 152.3 107.6 163.6 102.1 176.3C89.8 205.2 78.2 239 77 260.4C76.9 262 76.8 263.5 76.8 264.9C77.3 288.9 89.3 305.1 89.9 326.2C90 331 89.6 335.9 88.2 341.2C83.7 359.2 78.3 376.8 73.1 394.8" stroke="url(#paint7_linear_2_236)" stroke-miterlimit="10"/>
<path d="M92.4 1C104 16.5 99.9 33.7 97.5 51.3C96.3 60 95.8 68.9001 97.6 77.9001C103.1 105 117.3 109.5 120.3 143.9C121 152 116.5 163.2 111 175.8C98.4 204.8 87.9 238.4 87.1 260.1C87 261.7 87 263.2 87 264.6C87.8 288.4 99.5 304.9 100.2 326C100.4 330.8 99.9 335.7 98.6 341C94.2 359 88.7 376.7 83.5 394.7" stroke="url(#paint8_linear_2_236)" stroke-miterlimit="10"/>
<path d="M102.8 1C114.3 16.4 110.4 33.5001 108 51.1001C106.8 59.7001 106.3 68.6001 108.1 77.6001C113.4 104.5 127.5 109.7 129.7 143.4C130.2 151.6 125.5 162.7 120 175.2C107 204.4 97.7 237.7 97.3 259.7C97.3 261.3 97.2 262.8 97.3 264.2C98.4 287.9 109.9 304.6 110.6 325.7C110.8 330.5 110.3 335.5 109.1 340.8C104.8 358.9 99.3 376.6 94 394.6" stroke="url(#paint9_linear_2_236)" stroke-miterlimit="10"/>
<path d="M113.1 1C124.5 16.3 120.7 33.4001 118.4 50.9001C117.3 59.5001 116.8 68.3 118.5 77.3C123.6 104 137.5 109.8 139 143C139.4 151.3 134.4 162.3 128.8 174.7C115.5 204 107.2 237 107.3 259.4C107.3 261 107.3 262.5 107.4 263.9C108.8 287.5 120 304.3 120.8 325.5C121 330.3 120.5 335.3 119.3 340.6C115.1 358.7 109.5 376.4 104.2 394.6" stroke="url(#paint10_linear_2_236)" stroke-miterlimit="10"/>
<path d="M123.4 1C134.8 16.2 131.1 33.3002 128.8 50.7002C127.7 59.3002 127.2 68.1 128.9 77C133.8 103.5 147.5 110 148.3 142.6C148.5 151 143.4 161.9 137.7 174.2C124.1 203.6 116.8 236.4 117.4 259.1C117.4 260.7 117.4 262.2 117.5 263.6C119.2 287.1 130.2 304.1 131 325.4C131.2 330.3 130.8 335.3 129.6 340.5C125.5 358.7 119.9 376.4 114.6 394.6" stroke="url(#paint11_linear_2_236)" stroke-miterlimit="10"/>
<path d="M133.7 1C145 16.2 141.5 33.2 139.2 50.5C138.1 59 137.6 67.8002 139.2 76.7002C144 103.1 157.4 110.3 157.5 142.2C157.5 150.7 152.2 161.5 146.4 173.7C132.5 203.2 126.3 235.8 127.3 258.8C127.4 260.4 127.4 261.9 127.5 263.3C129.5 286.6 140.3 303.9 141.1 325.2C141.3 330.1 140.9 335.1 139.7 340.4C135.7 358.7 130 376.4 124.7 394.6" stroke="url(#paint12_linear_2_236)" stroke-miterlimit="10"/>
<path d="M144 1C155.3 16.1 151.8 33 149.6 50.3C148.5 58.8 148.1 67.5001 149.6 76.4001C154.2 102.6 167.3 110.5 166.8 141.8C166.7 150.4 161.1 161.2 155.3 173.2C141 202.8 135.9 235.1 137.4 258.5C137.5 260.1 137.6 261.6 137.7 263C140.1 286.2 150.5 303.7 151.4 325C151.6 329.9 151.2 334.9 150.1 340.2C146.2 358.5 140.4 376.2 135.1 394.6" stroke="url(#paint13_linear_2_236)" stroke-miterlimit="10"/>
<path d="M154.4 1C165.6 16 162.3 32.9001 160.1 50.1001C159 58.5001 158.6 67.3001 160.1 76.1001C164.5 102.1 177.4 110.7 176.2 141.4C175.9 150.1 170.1 160.8 164.2 172.7C149.6 202.4 145.5 234.5 147.5 258.2C147.6 259.8 147.7 261.3 147.9 262.7C150.6 285.8 160.8 303.5 161.7 324.8C161.9 329.7 161.5 334.8 160.4 340.1C156.6 358.5 150.8 376.2 145.4 394.6" stroke="url(#paint14_linear_2_236)" stroke-miterlimit="10"/>
<path d="M164.7 1C175.8 15.9 172.7 32.8001 170.5 49.9001C169.4 58.3001 169.1 67 170.5 75.8C174.8 101.6 187.3 110.9 185.5 141C185 149.8 179.1 160.4 173.1 172.2C158.2 202.1 155.1 233.8 157.6 257.9C157.8 259.5 157.9 261 158 262.4C161 285.4 170.9 303.3 171.9 324.7C172.1 329.7 171.7 334.7 170.7 340C167 358.4 161.1 376.2 155.8 394.6" stroke="url(#paint15_linear_2_236)" stroke-miterlimit="10"/>
<path d="M175 1C186.1 15.8 183 32.6002 180.9 49.7002C179.9 58.1002 179.5 66.7 180.9 75.5C185 101.1 197.2 111.1 194.8 140.6C194.1 149.5 188 160 182 171.8C166.7 201.8 164.8 233.3 167.7 257.8C167.9 259.4 168 260.9 168.2 262.3C171.5 285.2 181.2 303.2 182.2 324.7C182.4 329.7 182.1 334.8 181 340C177.4 358.5 171.5 376.3 166.1 394.8" stroke="url(#paint16_linear_2_236)" stroke-miterlimit="10"/>
<path d="M185.3 1C196.3 15.8 193.4 32.5 191.3 49.5C190.3 57.8 189.9 66.4002 191.3 75.2002C195.2 100.6 207 111.3 204.2 140.2C203.3 149.2 197 159.6 190.9 171.3C175.3 201.4 174.4 232.7 177.8 257.5C178 259.1 178.2 260.6 178.4 262.1C182 284.8 191.5 303.1 192.5 324.6C192.7 329.6 192.4 334.7 191.4 340C187.9 358.5 181.9 376.3 176.5 394.9" stroke="url(#paint17_linear_2_236)" stroke-miterlimit="10"/>
<path d="M195.6 1C206.6 15.7 203.8 32.4 201.7 49.3C200.7 57.6 200.4 66.2001 201.7 74.9001C205.5 100.1 216.9 111.5 213.5 139.8C212.4 148.9 205.9 159.2 199.8 170.8C183.9 201 183.9 232 187.9 257.2C188.1 258.8 188.3 260.3 188.6 261.8C192.5 284.4 201.7 302.9 202.8 324.4C203.1 329.4 202.7 334.5 201.7 339.8C198.3 358.4 192.3 376.2 186.8 394.8" stroke="url(#paint18_linear_2_236)" stroke-miterlimit="10"/>
<path d="M206 1C216.9 15.6 214.2 32.3001 212.2 49.1001C211.2 57.3001 210.9 65.9001 212.2 74.6001C215.8 99.6001 226.8 111.8 222.9 139.3C221.6 148.6 214.9 158.7 208.7 170.2C192.4 200.5 193.5 231.3 198 256.8C198.3 258.4 198.5 259.9 198.7 261.4C202.9 283.9 211.9 302.6 213 324.2C213.3 329.3 212.9 334.4 212 339.7C208.6 358.4 202.6 376.2 197.2 394.9" stroke="url(#paint19_linear_2_236)" stroke-miterlimit="10"/>
<path d="M216.3 1C227.1 15.5 224.6 32.1001 222.6 48.9001C221.6 57.1001 221.4 65.6 222.6 74.3C226 99.1 236.6 112 232.2 138.9C230.7 148.3 223.8 158.3 217.6 169.7C201 200.1 203.1 230.7 208.1 256.5C208.4 258.1 208.6 259.6 208.9 261.1C213.3 283.5 222.2 302.4 223.3 324C223.6 329.1 223.3 334.2 222.3 339.5C219 358.2 212.9 376 207.5 394.8" stroke="url(#paint20_linear_2_236)" stroke-miterlimit="10"/>
<path d="M226.6 1C237.4 15.4 235 32.0002 233 48.7002C232 56.8002 231.8 65.4 233 74C236.3 98.6 246.4 112.2 241.5 138.5C239.7 148 232.7 157.9 226.5 169.2C209.5 199.7 212.7 230 218.2 256.2C218.5 257.8 218.8 259.3 219.1 260.8C223.8 283 232.4 302.2 233.6 323.8C233.9 328.9 233.6 334.1 232.7 339.3C229.5 358.1 223.4 375.9 217.9 394.7" stroke="url(#paint21_linear_2_236)" stroke-miterlimit="10"/>
<path d="M236.9 1C247.6 15.4 245.3 31.9 243.4 48.5C242.5 56.6 242.3 65.1002 243.3 73.7002C246.4 98.1002 256.1 112.4 250.7 138.1C248.7 147.7 241.6 157.5 235.2 168.7C217.9 199.3 222 229.4 228.1 255.9C228.5 257.5 228.7 259 229.1 260.5C234.1 282.6 242.5 301.9 243.7 323.7C244 328.9 243.7 334 242.9 339.3C239.8 358.1 233.6 376 228.1 394.9" stroke="url(#paint22_linear_2_236)" stroke-miterlimit="10"/>
<path d="M247.3 1C258 15.3 255.8 31.7 253.9 48.3C253 56.4 252.8 64.8001 253.8 73.4001C256.7 97.6001 265.9 112.6 260.1 137.7C257.9 147.4 250.6 157.1 244.2 168.2C226.5 198.9 231.7 228.8 238.3 255.6C238.7 257.1 239 258.7 239.4 260.2C244.7 282.2 252.8 301.7 254.1 323.5C254.4 328.7 254.1 333.9 253.3 339.1C250.3 358 244.1 375.9 238.6 394.8" stroke="url(#paint23_linear_2_236)" stroke-miterlimit="10"/>
<path d="M257.6 1C268.2 15.2 266.1 31.6001 264.3 48.1001C263.4 56.1001 263.2 64.5001 264.2 73.1001C267 97.1001 275.6 112.8 269.4 137.3C266.9 147.1 259.5 156.7 253 167.7C234.9 198.5 241.1 228.2 248.3 255.3C248.7 256.8 249 258.4 249.4 259.9C255 281.8 262.9 301.5 264.2 323.3C264.5 328.5 264.3 333.7 263.5 339C260.6 358 254.3 375.8 248.8 394.8" stroke="url(#paint24_linear_2_236)" stroke-miterlimit="10"/>
<path d="M267.9 1C278.4 15.1 276.5 31.5001 274.7 47.9001C273.8 55.9001 273.7 64.3 274.6 72.8C277.2 96.7 285.4 113 278.7 136.9C276 146.8 268.4 156.3 261.9 167.2C243.5 198.1 250.7 227.5 258.3 255.1C258.7 256.6 259.1 258.2 259.5 259.7C265.4 281.5 273.1 301.4 274.4 323.2C274.7 328.4 274.5 333.6 273.7 338.9C270.9 357.9 264.6 375.8 259 394.9" stroke="url(#paint25_linear_2_236)" stroke-miterlimit="10"/>
<path d="M278.2 1C288.7 15 286.9 31.4002 285.1 47.7002C284.2 55.6002 284.1 64 285 72.5C287.4 96.2 295.1 113.1 288 136.5C285 146.4 277.3 155.9 270.7 166.7C251.9 197.7 260.1 226.9 268.3 254.8C268.8 256.3 269.2 257.9 269.6 259.4C275.7 281.1 283.2 301.2 284.6 323.1C284.9 328.4 284.7 333.6 284 338.8C281.3 357.9 274.9 375.8 269.3 394.9" stroke="url(#paint26_linear_2_236)" stroke-miterlimit="10"/>
<path d="M288.5 1C298.9 15 297.2 31.2 295.5 47.5C294.6 55.4 294.6 63.7002 295.4 72.2002C297.7 95.7002 304.8 113.3 297.3 136.1C294 146.1 286.2 155.5 279.6 166.2C260.5 197.3 269.6 226.3 278.4 254.5C278.9 256 279.3 257.6 279.8 259.1C286.2 280.6 293.5 301 294.9 322.9C295.2 328.2 295 333.4 294.3 338.7C291.7 357.8 285.2 375.7 279.7 394.9" stroke="url(#paint27_linear_2_236)" stroke-miterlimit="10"/>
<path d="M298.9 1C309.3 14.9 307.7 31.1 306 47.3C305.2 55.2 305.1 63.4001 305.9 71.9001C308 95.2001 314.5 113.5 306.7 135.7C303.1 145.8 295.2 155 288.6 165.7C269.1 196.9 279.3 225.7 288.6 254.2C289.1 255.7 289.6 257.3 290 258.8C296.7 280.2 303.7 300.7 305.2 322.7C305.6 328 305.4 333.3 304.7 338.5C302.2 357.7 295.7 375.6 290.1 394.9" stroke="url(#paint28_linear_2_236)" stroke-miterlimit="10"/>
<path d="M309.2 1C319.5 14.8 318.1 31.0001 316.4 47.1001C315.6 54.9001 315.6 63.2001 316.3 71.6001C318.3 94.7001 324.2 113.6 316 135.2C312.2 145.4 304.1 154.5 297.4 165.1C277.5 196.3 288.7 225 298.6 253.8C299.1 255.3 299.6 256.9 300.1 258.4C307.1 279.7 313.9 300.4 315.4 322.4C315.8 327.7 315.6 333 314.9 338.2C312.6 357.5 305.9 375.4 300.3 394.7" stroke="url(#paint29_linear_2_236)" stroke-miterlimit="10"/>
<path d="M319.5 1C329.7 14.7 328.4 30.8001 326.8 46.9001C326 54.7001 326 62.9 326.7 71.3C328.5 94.2 333.9 113.7 325.3 134.8C321.2 145 313 154.1 306.3 164.6C286 195.9 298.2 224.4 308.7 253.5C309.3 255 309.8 256.6 310.3 258.1C317.5 279.3 324.2 300.2 325.7 322.3C326.1 327.7 325.9 332.9 325.3 338.2C323.1 357.5 316.4 375.5 310.7 394.8" stroke="url(#paint30_linear_2_236)" stroke-miterlimit="10"/>
<path d="M329.8 1C340 14.7 338.8 30.7002 337.2 46.7002C336.4 54.4002 336.4 62.6 337 71C338.6 93.7 343.5 113.8 334.6 134.4C330.1 144.7 321.9 153.7 315.1 164.1C294.5 195.5 307.6 223.8 318.7 253.2C319.3 254.7 319.8 256.3 320.4 257.8C327.9 278.9 334.3 300 335.9 322.1C336.3 327.5 336.1 332.8 335.5 338C333.3 357.4 326.6 375.3 321 394.7" stroke="url(#paint31_linear_2_236)" stroke-miterlimit="10"/>
<path d="M340.1 1C350.2 14.6 349.2 30.6 347.6 46.5C346.8 54.2 346.9 62.4002 347.4 70.7002C348.9 93.2002 353.1 113.9 343.9 134C339.1 144.4 330.8 153.3 324 163.6C303 195.1 317.1 223.2 328.8 252.9C329.4 254.4 330 256 330.5 257.5C338.3 278.5 344.5 299.8 346.1 321.9C346.5 327.3 346.4 332.6 345.8 337.9C343.7 357.3 337 375.3 331.3 394.8" stroke="url(#paint32_linear_2_236)" stroke-miterlimit="10"/>
<path d="M350.5 1C360.6 14.5 359.6 30.5 358.1 46.3C357.3 54 357.4 62.1001 357.9 70.4001C359.3 92.7001 362.9 114 353.3 133.6C348.2 144 339.8 152.9 332.9 163.1C311.5 194.7 326.6 222.7 338.9 252.6C339.5 254.1 340.1 255.6 340.7 257.2C348.7 278.1 354.7 299.6 356.4 321.7C356.8 327.2 356.7 332.5 356.2 337.7C354.2 357.2 347.4 375.2 341.7 394.7" stroke="url(#paint33_linear_2_236)" stroke-miterlimit="10"/>
<path d="M360.8 1C370.8 14.4 370 30.3001 368.5 46.1001C367.8 53.7001 367.9 61.8001 368.3 70.1001C369.5 92.2001 372.5 114.1 362.6 133.2C357.2 143.6 348.7 152.5 341.8 162.6C320 194.2 336.1 222.1 349 252.3C349.6 253.8 350.3 255.3 350.9 256.9C359.2 277.7 365 299.3 366.7 321.6C367.1 327.1 367 332.4 366.5 337.6C364.6 357.2 357.7 375.1 352 394.7" stroke="url(#paint34_linear_2_236)" stroke-miterlimit="10"/>
<path d="M371.1 1C381 14.3 380.3 30.2001 378.9 45.9001C378.2 53.5001 378.3 61.5 378.7 69.8C379.7 91.7 382.2 114.1 371.9 132.8C366.1 143.3 357.6 152.1 350.7 162.1C328.5 193.8 345.6 221.5 359.1 252.1C359.8 253.6 360.4 255.1 361.1 256.7C369.6 277.4 375.3 299.2 377 321.5C377.4 327 377.3 332.3 376.9 337.6C375.1 357.2 368.2 375.2 362.5 394.9" stroke="url(#paint35_linear_2_236)" stroke-miterlimit="10"/>
<path d="M381.4 1C391.3 14.3 390.7 30.1002 389.3 45.7002C386.7 73.2002 395.9 107.3 381.2 132.3C375.1 142.8 366.5 151.6 359.5 161.5C336.9 193.3 355 220.8 369.1 251.7C379.1 273.6 385.2 297.2 387.1 321.2C389.2 347.6 379.9 369.8 372.6 394.7" stroke="url(#paint36_linear_2_236)" stroke-miterlimit="10"/>
<defs>
<linearGradient id="paint0_linear_2_236" x1="0.5485" y1="197.796" x2="46.9411" y2="197.796" gradientUnits="userSpaceOnUse">
<stop stop-color="white"/>
<stop offset="1"/>
</linearGradient>
<linearGradient id="paint1_linear_2_236" x1="10.8695" y1="197.796" x2="56.1558" y2="197.796" gradientUnits="userSpaceOnUse">
<stop stop-color="white"/>
<stop offset="1"/>
</linearGradient>
<linearGradient id="paint2_linear_2_236" x1="21.1906" y1="197.796" x2="65.384" y2="197.796" gradientUnits="userSpaceOnUse">
<stop stop-color="white"/>
<stop offset="1"/>
</linearGradient>
<linearGradient id="paint3_linear_2_236" x1="31.5116" y1="197.796" x2="74.6192" y2="197.796" gradientUnits="userSpaceOnUse">
<stop stop-color="white"/>
<stop offset="1"/>
</linearGradient>
<linearGradient id="paint4_linear_2_236" x1="41.8325" y1="197.796" x2="83.863" y2="197.796" gradientUnits="userSpaceOnUse">
<stop stop-color="white"/>
<stop offset="1"/>
</linearGradient>
<linearGradient id="paint5_linear_2_236" x1="52.1536" y1="197.796" x2="93.1154" y2="197.796" gradientUnits="userSpaceOnUse">
<stop stop-color="white"/>
<stop offset="1"/>
</linearGradient>
<linearGradient id="paint6_linear_2_236" x1="62.4746" y1="197.796" x2="102.376" y2="197.796" gradientUnits="userSpaceOnUse">
<stop stop-color="white"/>
<stop offset="1"/>
</linearGradient>
<linearGradient id="paint7_linear_2_236" x1="72.7956" y1="197.796" x2="111.645" y2="197.796" gradientUnits="userSpaceOnUse">
<stop stop-color="white"/>
<stop offset="1"/>
</linearGradient>
<linearGradient id="paint8_linear_2_236" x1="83.1166" y1="197.796" x2="120.922" y2="197.796" gradientUnits="userSpaceOnUse">
<stop stop-color="white"/>
<stop offset="1"/>
</linearGradient>
<linearGradient id="paint9_linear_2_236" x1="93.4376" y1="197.796" x2="130.206" y2="197.796" gradientUnits="userSpaceOnUse">
<stop stop-color="white"/>
<stop offset="1"/>
</linearGradient>
<linearGradient id="paint10_linear_2_236" x1="103.759" y1="197.796" x2="139.499" y2="197.796" gradientUnits="userSpaceOnUse">
<stop stop-color="white"/>
<stop offset="1"/>
</linearGradient>
<linearGradient id="paint11_linear_2_236" x1="114.08" y1="197.796" x2="148.8" y2="197.796" gradientUnits="userSpaceOnUse">
<stop stop-color="white"/>
<stop offset="1"/>
</linearGradient>
<linearGradient id="paint12_linear_2_236" x1="124.401" y1="197.796" x2="158.11" y2="197.796" gradientUnits="userSpaceOnUse">
<stop stop-color="white"/>
<stop offset="1"/>
</linearGradient>
<linearGradient id="paint13_linear_2_236" x1="134.722" y1="197.796" x2="167.44" y2="197.796" gradientUnits="userSpaceOnUse">
<stop stop-color="white"/>
<stop offset="1"/>
</linearGradient>
<linearGradient id="paint14_linear_2_236" x1="145.043" y1="197.796" x2="176.812" y2="197.796" gradientUnits="userSpaceOnUse">
<stop stop-color="white"/>
<stop offset="1"/>
</linearGradient>
<linearGradient id="paint15_linear_2_236" x1="155.364" y1="197.796" x2="186.222" y2="197.796" gradientUnits="userSpaceOnUse">
<stop stop-color="white"/>
<stop offset="1"/>
</linearGradient>
<linearGradient id="paint16_linear_2_236" x1="165.685" y1="197.796" x2="195.664" y2="197.796" gradientUnits="userSpaceOnUse">
<stop stop-color="white"/>
<stop offset="1"/>
</linearGradient>
<linearGradient id="paint17_linear_2_236" x1="175.665" y1="197.796" x2="205.135" y2="197.796" gradientUnits="userSpaceOnUse">
<stop stop-color="white"/>
<stop offset="1"/>
</linearGradient>
<linearGradient id="paint18_linear_2_236" x1="185.161" y1="197.796" x2="214.632" y2="197.796" gradientUnits="userSpaceOnUse">
<stop stop-color="white"/>
<stop offset="1"/>
</linearGradient>
<linearGradient id="paint19_linear_2_236" x1="194.575" y1="197.796" x2="224.154" y2="197.796" gradientUnits="userSpaceOnUse">
<stop stop-color="white"/>
<stop offset="1"/>
</linearGradient>
<linearGradient id="paint20_linear_2_236" x1="203.915" y1="197.796" x2="233.698" y2="197.796" gradientUnits="userSpaceOnUse">
<stop stop-color="white"/>
<stop offset="1"/>
</linearGradient>
<linearGradient id="paint21_linear_2_236" x1="213.189" y1="197.796" x2="243.265" y2="197.796" gradientUnits="userSpaceOnUse">
<stop stop-color="white"/>
<stop offset="1"/>
</linearGradient>
<linearGradient id="paint22_linear_2_236" x1="222.406" y1="197.796" x2="252.854" y2="197.796" gradientUnits="userSpaceOnUse">
<stop stop-color="white"/>
<stop offset="1"/>
</linearGradient>
<linearGradient id="paint23_linear_2_236" x1="231.574" y1="197.796" x2="262.465" y2="197.796" gradientUnits="userSpaceOnUse">
<stop stop-color="white"/>
<stop offset="1"/>
</linearGradient>
<linearGradient id="paint24_linear_2_236" x1="240.699" y1="197.796" x2="272.098" y2="197.796" gradientUnits="userSpaceOnUse">
<stop stop-color="white"/>
<stop offset="1"/>
</linearGradient>
<linearGradient id="paint25_linear_2_236" x1="249.788" y1="197.796" x2="281.756" y2="197.796" gradientUnits="userSpaceOnUse">
<stop stop-color="white"/>
<stop offset="1"/>
</linearGradient>
<linearGradient id="paint26_linear_2_236" x1="258.844" y1="197.796" x2="291.439" y2="197.796" gradientUnits="userSpaceOnUse">
<stop stop-color="white"/>
<stop offset="1"/>
</linearGradient>
<linearGradient id="paint27_linear_2_236" x1="267.872" y1="197.796" x2="301.15" y2="197.796" gradientUnits="userSpaceOnUse">
<stop stop-color="white"/>
<stop offset="1"/>
</linearGradient>
<linearGradient id="paint28_linear_2_236" x1="276.876" y1="197.796" x2="310.891" y2="197.796" gradientUnits="userSpaceOnUse">
<stop stop-color="white"/>
<stop offset="1"/>
</linearGradient>
<linearGradient id="paint29_linear_2_236" x1="285.858" y1="197.796" x2="320.664" y2="197.796" gradientUnits="userSpaceOnUse">
<stop stop-color="white"/>
<stop offset="1"/>
</linearGradient>
<linearGradient id="paint30_linear_2_236" x1="294.822" y1="197.796" x2="330.473" y2="197.796" gradientUnits="userSpaceOnUse">
<stop stop-color="white"/>
<stop offset="1"/>
</linearGradient>
<linearGradient id="paint31_linear_2_236" x1="303.768" y1="197.796" x2="340.322" y2="197.796" gradientUnits="userSpaceOnUse">
<stop stop-color="white"/>
<stop offset="1"/>
</linearGradient>
<linearGradient id="paint32_linear_2_236" x1="312.7" y1="197.796" x2="350.228" y2="197.796" gradientUnits="userSpaceOnUse">
<stop stop-color="white"/>
<stop offset="1"/>
</linearGradient>
<linearGradient id="paint33_linear_2_236" x1="321.618" y1="197.796" x2="360.163" y2="197.796" gradientUnits="userSpaceOnUse">
<stop stop-color="white"/>
<stop offset="1"/>
</linearGradient>
<linearGradient id="paint34_linear_2_236" x1="330.524" y1="197.796" x2="370.148" y2="197.796" gradientUnits="userSpaceOnUse">
<stop stop-color="white"/>
<stop offset="1"/>
</linearGradient>
<linearGradient id="paint35_linear_2_236" x1="339.398" y1="197.796" x2="380.23" y2="197.796" gradientUnits="userSpaceOnUse">
<stop stop-color="white"/>
<stop offset="1"/>
</linearGradient>
<linearGradient id="paint36_linear_2_236" x1="348.305" y1="197.796" x2="390.599" y2="197.796" gradientUnits="userSpaceOnUse">
<stop stop-color="white"/>
<stop offset="1"/>
</linearGradient>
</defs>
</svg>
